<svg xmlns="http://www.w3.org/2000/svg" width="1024" height="1024" fill="none" viewBox="0 0 1024 1024"><path fill="#000" d="M563.594 176H660.495V331.249H621.633L563.594 176Z"/><path fill="#000" d="M660.494 176C704.554 176 748.181 184.678 788.887 201.539C829.592 218.4 866.578 243.113 897.733 274.267C928.887 305.422 953.6 342.408 970.461 383.113C987.322 423.819 996 467.446 996 511.506C996 555.565 987.322 599.193 970.461 639.898C953.6 680.603 928.887 717.589 897.733 748.744C866.578 779.898 829.592 804.612 788.887 821.472C748.181 838.333 704.554 847.011 660.494 847.011L660.494 691.773C684.167 691.773 707.609 687.11 729.48 678.051C751.351 668.991 771.223 655.713 787.963 638.974C804.702 622.234 817.98 602.362 827.04 580.491C836.099 558.62 840.762 535.179 840.762 511.506C840.762 487.833 836.099 464.391 827.04 442.52C817.98 420.649 804.702 400.777 787.963 384.037C771.223 367.298 751.351 354.02 729.48 344.96C707.609 335.901 684.168 331.238 660.494 331.238V176Z"/><path fill="#000" d="M404 401.5C404 394.596 409.596 389 416.5 389H559V847H404L404 401.5Z"/><path fill="#000" d="M540 704.5C540 697.596 545.596 692 552.5 692H671V847H540V704.5Z"/><rect width="7" height="155" x="656" y="176" fill="#000"/><path fill="#000" d="M191 294H346V847H216C202.193 847 191 835.807 191 822V294Z"/><path fill="#000" d="M480 176V331H28V226C28 202.43 28 190.645 35.3223 183.322C42.6447 176 54.4298 176 78 176L480 176Z"/><path fill="#000" d="M559 331L463 331L463 176H501.5L559 331Z"/></svg>