<svg width="1024" height="1024" viewBox="0 0 1024 1024" fill="none" xmlns="http://www.w3.org/2000/svg">
<path d="M570.473 201.248C570.662 202.382 591.824 237.891 612.034 276.801L649.397 348.713C661.859 348.713 668.519 348.438 681.354 348.954C699.298 349.71 719.508 351.221 726.119 352.354C773.339 360.476 826.037 406.185 844.926 455.861C855.314 482.871 860.981 520.27 858.336 545.769C851.725 611.878 802.427 672.887 738.585 694.042C714.597 701.975 685.887 704.052 622.045 702.352L573.313 701.219L572.935 560.313L572.369 419.407L499.083 418.84C441.474 418.463 425.607 418.84 425.041 420.729C423.152 425.829 427.307 814.171 429.196 818.893C430.329 821.537 434.485 827.015 438.451 830.981C452.429 844.77 448.084 844.203 555.369 844.958C665.11 845.714 724.419 843.636 752.562 837.781C792.416 829.659 840.204 808.882 873.636 785.272C896.302 769.217 929.356 736.162 945.978 713.119C961.844 690.642 982.998 648.332 990.554 623.4C1002.26 585.434 1007.36 538.403 1003.96 501.193C993.576 383.331 935.11 287.366 836.324 236.557C804.131 216.825 735.591 198.652 705.475 201.248C674.84 201.248 573.588 201.248 570.473 201.248Z" fill="black"/>
<path d="M118.108 203.137C83.9198 205.026 66.3538 212.581 46.3323 234.68C26.1219 256.78 18 284.545 18 331.955V348.576H116.219H214.437V537.836C214.626 642.099 215.382 738.051 216.137 751.273C217.648 773.183 218.404 776.583 224.448 789.049C231.815 804.16 244.847 818.326 259.769 826.826C278.657 837.97 312.089 845.336 343.066 845.336H355.532L356.854 814.548C357.421 797.738 358.554 685.92 359.31 566.168L360.443 348.576H464.895C522.504 348.576 570.992 348.713 572.55 348.713C572.03 348.194 552.725 313.633 532.326 273.779L494.927 201.248L318.323 201.626C221.237 201.815 131.14 202.382 118.108 203.137Z" fill="black"/>
</svg>
